<svg version="1.1" viewBox="0.0 0.0 1020.4724409448819 377.9527559055118" fill="none" stroke="none" stroke-linecap="square" stroke-miterlimit="10" xmlns:xlink="http://www.w3.org/1999/xlink" xmlns="http://www.w3.org/2000/svg"><clipPath id="g9cc2cd4980_0_31.0"><path d="m0 0l1020.4724 0l0 377.95276l-1020.4724 0l0 -377.95276z" clip-rule="nonzero"/></clipPath><g clip-path="url(#g9cc2cd4980_0_31.0)"><path fill="none" d="m0 0l1020.4724 0l0 377.95276l-1020.4724 0z" fill-rule="evenodd"/><path fill="#6fa8dc" d="m7.531747 102.707306l73.39228 0l0 110.34564l-73.39228 0z" fill-rule="evenodd"/><path fill="#cccccc" d="m7.531747 230.27289l73.39228 0l0 50.128662l-73.39228 0z" fill-rule="evenodd"/><path fill="#6fa8dc" d="m94.44533 81.41927l73.39227 0l0 33.117607l-73.39227 0z" fill-rule="evenodd"/><path fill="#6fa8dc" d="m181.3589 237.33183l73.39229 0l0 43.06682l-73.39229 0z" fill-rule="evenodd"/><path fill="#cccccc" d="m180.39075 7.613231l54.0791 0l0 0c5.122177 0 10.034561 2.0347753 13.656479 5.6566987c3.621933 3.6219234 5.656708 8.534306 5.656708 13.656479l0 192.50731l-73.39229 0z" fill-rule="evenodd"/><path fill="#cccccc" d="m80.919014 7.613231l-42.932278 0l0 0c-8.078493 0 -15.826113 3.209169 -21.53847 8.921526c-5.7123585 5.7123585 -8.921527 13.459976 -8.921527 21.53847l0 50.1772l73.39227 0z" fill-rule="evenodd"/><path fill="#cccccc" d="m93.96125 6.9667654l73.39228 0l0 58.581985l-73.39228 0z" fill-rule="evenodd"/><path fill="#cccccc" d="m93.96125 130.41408l73.39228 0l0 150.00328l-73.39228 0z" fill-rule="evenodd"/><path fill="#cccccc" d="m230.15512 370.98795l-196.10107 0c-7.034151 0 -13.780201 -2.7943115 -18.754097 -7.768219c-4.973896 -4.973877 -7.768202 -11.71994 -7.768202 -18.75409l0 -46.18338c0 -0.0011291504 9.2983246E-4 -0.0020751953 0.002076149 -0.0020751953l249.1436 0.0020751953l0 0c0.0011291504 0 0.0020751953 9.460449E-4 0.0020751953 0.0020751953l-0.0020751953 46.181305l0 0c0 14.647858 -11.874451 26.522308 -26.522308 26.522308z" fill-rule="evenodd"/><path fill="#f3f3f3" d="m111.680016 334.6351l0 0c0 -11.527527 9.144394 -20.872437 20.424568 -20.872437l0 0c5.416931 0 10.6119995 2.1990356 14.442352 6.1134033c3.8303528 3.9143372 5.9822083 9.223328 5.9822083 14.759033l0 0c0 11.527527 -9.144379 20.872437 -20.42456 20.872437l0 0c-11.280174 0 -20.424568 -9.34491 -20.424568 -20.872437z" fill-rule="evenodd"/><path fill="#000000" fill-opacity="0.0" d="m291.46457 36.026245l748.18896 0l0 322.96063l-748.18896 0z" fill-rule="evenodd"/><path fill="#434343" d="m312.37082 164.34625q-1.375 0 -2.25 -0.875q-0.875 -0.875 -0.875 -2.140625l0 -81.578125q0 -1.375 0.875 -2.25q0.875 -0.890625 2.25 -0.890625l9.90625 0q1.75 0 2.625 0.953125q0.875 0.9375 1.125 1.4375l24.203125 45.109375l24.4375 -45.109375q0.25 -0.5 1.125 -1.4375q0.875 -0.953125 2.625 -0.953125l9.78125 0q1.375 0 2.25 0.890625q0.875 0.875 0.875 2.25l0 81.578125q0 1.265625 -0.875 2.140625q-0.875 0.875 -2.25 0.875l-10.53125 0q-1.375 0 -2.1875 -0.875q-0.8125 -0.875 -0.8125 -2.140625l0 -54.265625l-17.546875 33.46875q-0.625 1.125 -1.640625 1.9375q-1.0 0.8125 -2.625 0.8125l-5.140625 0q-1.75 0 -2.703125 -0.8125q-0.9375 -0.8125 -1.5625 -1.9375l-17.546875 -33.46875l0 54.265625q0 1.265625 -0.875 2.140625q-0.875 0.875 -2.125 0.875l-10.53125 0zm125.07855 1.25q-13.90625 0 -22.0625 -8.015625q-8.140625 -8.015625 -8.765625 -22.8125q-0.125 -1.25 -0.125 -3.1875q0 -1.953125 0.125 -3.078125q0.5 -9.53125 4.3125 -16.359375q3.828125 -6.828125 10.59375 -10.515625q6.78125 -3.703125 15.921875 -3.703125q10.15625 0 17.046875 4.203125q6.890625 4.1875 10.390625 11.65625q3.515625 7.453125 3.515625 17.21875l0 2.640625q0 1.25 -0.875 2.125q-0.875 0.875 -2.25 0.875l-41.609375 0q0 0 0 0.375q0 0.375 0 0.640625q0.125 4.375 1.6875 8.078125q1.5625 3.703125 4.625 5.953125q3.078125 2.25 7.34375 2.25q3.515625 0 5.890625 -1.0625q2.375 -1.0625 3.875 -2.4375q1.515625 -1.390625 2.140625 -2.265625q1.125 -1.5 1.8125 -1.8125q0.6875 -0.3125 2.078125 -0.3125l10.78125 0q1.25 0 2.0625 0.75q0.8125 0.75 0.6875 1.875q-0.125 2.015625 -2.078125 4.90625q-1.9375 2.875 -5.578125 5.640625q-3.625 2.75 -9.078125 4.5625q-5.453125 1.8125 -12.46875 1.8125zm-13.78125 -39.46875l27.6875 0l0 -0.375q0 -4.890625 -1.625 -8.59375q-1.625 -3.703125 -4.765625 -5.765625q-3.125 -2.0625 -7.515625 -2.0625q-4.390625 0 -7.53125 2.0625q-3.125 2.0625 -4.6875 5.765625q-1.5625 3.703125 -1.5625 8.59375l0 0.375zm61.03305 38.21875q-1.25 0 -2.140625 -0.875q-0.875 -0.875 -0.875 -2.140625l0 -59.140625q0 -1.265625 0.875 -2.140625q0.890625 -0.875 2.140625 -0.875l9.78125 0q1.25 0 2.125 0.875q0.875 0.875 0.875 2.140625l0 4.25q2.625 -3.5 7.078125 -5.9375q4.453125 -2.453125 10.59375 -2.578125q14.28125 -0.25 19.921875 11.15625q2.890625 -5.015625 8.34375 -8.078125q5.453125 -3.078125 12.09375 -3.078125q6.515625 0 11.84375 3.015625q5.328125 3.0 8.390625 9.078125q3.078125 6.078125 3.078125 15.34375l0 35.96875q0 1.265625 -0.890625 2.140625q-0.875 0.875 -2.125 0.875l-10.28125 0q-1.25 0 -2.125 -0.875q-0.875 -0.875 -0.875 -2.140625l0 -34.953125q0 -5.640625 -1.640625 -8.953125q-1.625 -3.328125 -4.390625 -4.703125q-2.75 -1.390625 -6.125 -1.390625q-2.765625 0 -5.515625 1.390625q-2.75 1.375 -4.515625 4.703125q-1.75 3.3125 -1.75 8.953125l0 34.953125q0 1.265625 -0.875 2.140625q-0.875 0.875 -2.140625 0.875l-10.265625 0q-1.265625 0 -2.140625 -0.875q-0.875 -0.875 -0.875 -2.140625l0 -34.953125q0 -5.640625 -1.75 -8.953125q-1.75 -3.328125 -4.515625 -4.703125q-2.75 -1.390625 -5.890625 -1.390625q-2.875 0 -5.640625 1.453125q-2.75 1.4375 -4.515625 4.703125q-1.75 3.25 -1.75 8.890625l0 34.953125q0 1.265625 -0.875 2.140625q-0.875 0.875 -2.125 0.875l-10.53125 0zm138.8584 1.25q-10.015625 0 -16.859375 -3.5q-6.828125 -3.515625 -10.40625 -9.90625q-3.5625 -6.390625 -4.0625 -14.921875q-0.125 -2.25 -0.125 -5.5q0 -3.265625 0.125 -5.515625q0.5 -8.65625 4.1875 -14.984375q3.703125 -6.328125 10.53125 -9.828125q6.84375 -3.515625 16.609375 -3.515625q9.78125 0 16.609375 3.515625q6.828125 3.5 10.515625 9.828125q3.703125 6.328125 4.203125 14.984375q0.125 2.25 0.125 5.515625q0 3.25 -0.125 5.5q-0.5 8.53125 -4.078125 14.921875q-3.5625 6.390625 -10.390625 9.90625q-6.828125 3.5 -16.859375 3.5zm0 -12.40625q6.640625 0 10.28125 -4.1875q3.640625 -4.203125 4.015625 -12.359375q0.125 -1.875 0.125 -4.875q0 -3.015625 -0.125 -4.890625q-0.375 -8.15625 -4.015625 -12.34375q-3.640625 -4.203125 -10.28125 -4.203125q-6.640625 0 -10.28125 4.203125q-3.625 4.1875 -4.0 12.34375q-0.125 1.875 -0.125 4.890625q0 3.0 0.125 4.875q0.375 8.15625 4.0 12.359375q3.640625 4.1875 10.28125 4.1875zm73.569214 12.40625q-9.015625 0 -15.859375 -3.375q-6.828125 -3.390625 -10.65625 -9.84375q-3.8125 -6.453125 -4.1875 -15.609375q-0.125 -1.875 -0.125 -4.9375q0 -3.078125 0.125 -5.078125q0.375 -9.15625 4.1875 -15.609375q3.828125 -6.453125 10.65625 -9.828125q6.84375 -3.390625 15.859375 -3.390625q8.015625 0 13.65625 2.203125q5.640625 2.1875 9.28125 5.640625q3.640625 3.4375 5.453125 7.140625q1.8125 3.6875 1.9375 6.703125q0.125 1.375 -0.8125 2.1875q-0.9375 0.8125 -2.1875 0.8125l-11.03125 0q-1.25 0 -1.953125 -0.625q-0.6875 -0.625 -1.3125 -1.875q-1.875 -5.015625 -4.953125 -7.078125q-3.0625 -2.078125 -7.828125 -2.078125q-6.265625 0 -9.96875 3.953125q-3.6875 3.9375 -3.9375 12.46875q-0.25 4.765625 0 8.765625q0.25 8.65625 3.9375 12.546875q3.703125 3.875 9.96875 3.875q4.890625 0 7.890625 -2.0625q3.015625 -2.078125 4.890625 -7.09375q0.625 -1.25 1.3125 -1.875q0.703125 -0.625 1.953125 -0.625l11.03125 0q1.25 0 2.1875 0.8125q0.9375 0.8125 0.8125 2.203125q-0.125 2.25 -1.1875 5.078125q-1.0625 2.8125 -3.390625 5.765625q-2.3125 2.9375 -5.828125 5.390625q-3.5 2.4375 -8.453125 3.9375q-4.953125 1.5 -11.46875 1.5zm62.29669 0q-6.53125 0 -11.796875 -2.5625q-5.25 -2.578125 -8.328125 -6.890625q-3.0625 -4.328125 -3.0625 -9.71875q0 -8.765625 7.140625 -13.96875q7.140625 -5.203125 18.671875 -6.96875l17.171875 -2.5l0 -2.625q0 -5.265625 -2.640625 -8.140625q-2.625 -2.890625 -9.015625 -2.890625q-4.515625 0 -7.34375 1.8125q-2.8125 1.8125 -4.1875 4.828125q-1.0 1.625 -2.875 1.625l-9.90625 0q-1.375 0 -2.078125 -0.75q-0.6875 -0.75 -0.6875 -2.0q0.125 -2.015625 1.6875 -4.890625q1.578125 -2.890625 4.765625 -5.578125q3.203125 -2.6875 8.34375 -4.5625q5.140625 -1.890625 12.40625 -1.890625q7.890625 0 13.34375 1.953125q5.453125 1.9375 8.703125 5.203125q3.265625 3.25 4.765625 7.640625q1.515625 4.375 1.515625 9.265625l0 39.34375q0 1.265625 -0.890625 2.140625q-0.875 0.875 -2.125 0.875l-10.15625 0q-1.375 0 -2.1875 -0.875q-0.8125 -0.875 -0.8125 -2.140625l0 -4.875q-1.625 2.25 -4.390625 4.390625q-2.75 2.125 -6.703125 3.4375q-3.953125 1.3125 -9.328125 1.3125zm4.25 -11.90625q4.390625 0 7.953125 -1.875q3.578125 -1.875 5.640625 -5.828125q2.078125 -3.953125 2.078125 -9.96875l0 -2.625l-12.53125 2.0q-7.390625 1.125 -11.03125 3.640625q-3.640625 2.5 -3.640625 6.140625q0 2.75 1.6875 4.703125q1.703125 1.9375 4.328125 2.875q2.640625 0.9375 5.515625 0.9375zm51.39044 10.65625q-1.25 0 -2.140625 -0.875q-0.875 -0.875 -0.875 -2.140625l0 -59.015625q0 -1.390625 0.875 -2.265625q0.890625 -0.875 2.140625 -0.875l10.15625 0q1.25 0 2.1875 0.875q0.9375 0.875 0.9375 2.265625l0 5.125q2.890625 -4.0 7.453125 -6.125q4.578125 -2.140625 10.59375 -2.140625l5.140625 0q1.375 0 2.1875 0.875q0.828125 0.875 0.828125 2.140625l0 9.015625q0 1.25 -0.828125 2.140625q-0.8125 0.875 -2.1875 0.875l-9.78125 0q-6.015625 0 -9.34375 3.328125q-3.3125 3.3125 -3.3125 9.328125l0 34.453125q0 1.265625 -0.875 2.140625q-0.875 0.875 -2.25 0.875l-10.90625 0zm72.43103 1.25q-6.515625 0 -11.46875 -2.1875q-4.9375 -2.203125 -8.203125 -6.203125q-3.25 -4.015625 -5.015625 -9.46875q-1.75 -5.453125 -2.0 -11.96875q-0.125 -2.25 -0.125 -4.0625q0 -1.828125 0.125 -4.078125q0.25 -6.265625 1.9375 -11.65625q1.703125 -5.390625 5.015625 -9.453125q3.328125 -4.078125 8.265625 -6.328125q4.953125 -2.265625 11.46875 -2.265625q6.78125 0 11.46875 2.328125q4.703125 2.3125 7.84375 5.9375l0 -27.8125q0 -1.265625 0.8125 -2.140625q0.8125 -0.875 2.1875 -0.875l10.65625 0q1.25 0 2.125 0.875q0.875 0.875 0.875 2.140625l0 82.953125q0 1.265625 -0.875 2.140625q-0.875 0.875 -2.125 0.875l-9.90625 0q-1.375 0 -2.1875 -0.875q-0.8125 -0.875 -0.8125 -2.140625l0 -4.625q-3.140625 3.875 -7.96875 6.390625q-4.8125 2.5 -12.09375 2.5zm4.640625 -13.40625q5.265625 0 8.390625 -2.375q3.140625 -2.390625 4.640625 -6.078125q1.515625 -3.703125 1.640625 -7.59375q0.125 -2.25 0.125 -4.8125q0 -2.578125 -0.125 -4.828125q-0.125 -3.765625 -1.765625 -7.203125q-1.625 -3.453125 -4.765625 -5.703125q-3.125 -2.265625 -8.140625 -2.265625q-5.265625 0 -8.34375 2.328125q-3.0625 2.3125 -4.4375 6.078125q-1.375 3.75 -1.625 8.265625q-0.125 3.765625 0 7.515625q0.25 4.515625 1.625 8.28125q1.375 3.75 4.4375 6.078125q3.078125 2.3125 8.34375 2.3125zm72.70111 13.40625q-7.53125 0 -12.859375 -1.75q-5.328125 -1.75 -8.71875 -4.375q-3.375 -2.640625 -5.0 -5.265625q-1.625 -2.640625 -1.75 -4.390625q-0.125 -1.390625 0.8125 -2.203125q0.9375 -0.8125 2.0625 -0.8125l9.90625 0q0.5 0 0.875 0.125q0.375 0.125 1.0 0.75q1.640625 1.375 3.453125 2.890625q1.8125 1.5 4.3125 2.5625q2.515625 1.0625 6.28125 1.0625q4.875 0 8.203125 -1.9375q3.328125 -1.9375 3.328125 -5.578125q0 -2.625 -1.453125 -4.25q-1.4375 -1.640625 -5.328125 -2.953125q-3.875 -1.3125 -11.015625 -2.828125q-7.03125 -1.625 -11.671875 -4.125q-4.625 -2.515625 -6.890625 -6.265625q-2.25 -3.765625 -2.25 -8.78125q0 -4.890625 2.9375 -9.328125q2.953125 -4.453125 8.78125 -7.328125q5.828125 -2.890625 14.46875 -2.890625q6.78125 0 11.78125 1.6875q5.015625 1.6875 8.328125 4.203125q3.328125 2.5 5.078125 5.078125q1.765625 2.5625 1.890625 4.4375q0.125 1.390625 -0.75 2.203125q-0.875 0.8125 -2.0 0.8125l-9.28125 0q-0.625 0 -1.125 -0.25q-0.5 -0.25 -1.0 -0.625q-1.390625 -1.25 -3.015625 -2.6875q-1.625 -1.453125 -3.953125 -2.453125q-2.3125 -1.0 -6.078125 -1.0q-4.75 0 -7.265625 2.0625q-2.5 2.0625 -2.5 5.203125q0 2.125 1.1875 3.703125q1.1875 1.5625 4.8125 2.9375q3.640625 1.375 11.046875 2.890625q8.390625 1.5 13.34375 4.453125q4.953125 2.9375 7.015625 6.765625q2.0625 3.8125 2.0625 8.453125q0 5.640625 -3.328125 10.15625q-3.3125 4.5 -9.765625 7.078125q-6.453125 2.5625 -15.96875 2.5625z" fill-rule="nonzero"/><path fill="#b7b7b7" d="m310.74582 314.34625q-1.25 0 -2.078125 -0.8125q-0.8125 -0.8125 -0.8125 -2.0625l0 -9.03125q0 -1.25 0.8125 -2.0625q0.828125 -0.8125 2.078125 -0.8125l9.015625 0q1.265625 0 2.140625 0.8125q0.875 0.8125 0.875 2.0625l0 9.03125q0 1.25 -0.875 2.0625q-0.875 0.8125 -2.140625 0.8125l-9.015625 0zm51.510834 0q-7.015625 0 -11.40625 -2.6875q-4.390625 -2.703125 -6.40625 -7.65625q-2.0 -4.953125 -2.0 -11.71875l0 -33.078125l-9.765625 0q-1.25 0 -2.078125 -0.8125q-0.8125 -0.828125 -0.8125 -2.078125l0 -4.25q0 -1.265625 0.8125 -2.078125q0.828125 -0.8125 2.078125 -0.8125l9.765625 0l0 -20.921875q0 -1.265625 0.8125 -2.078125q0.828125 -0.8125 2.078125 -0.8125l5.890625 0q1.25 0 2.0625 0.8125q0.8125 0.8125 0.8125 2.078125l0 20.921875l15.546875 0q1.375 0 2.125 0.8125q0.765625 0.8125 0.765625 2.078125l0 4.25q0 1.25 -0.765625 2.078125q-0.75 0.8125 -2.125 0.8125l-15.546875 0l0 32.203125q0 5.890625 2.0 9.28125q2.015625 3.375 7.15625 3.375l7.640625 0q1.25 0 2.0625 0.828125q0.828125 0.8125 0.828125 2.0625l0 4.515625q0 1.25 -0.828125 2.0625q-0.8125 0.8125 -2.0625 0.8125l-8.640625 0zm49.628265 1.25q-13.03125 0 -20.6875 -7.953125q-7.640625 -7.953125 -8.390625 -21.75q-0.125 -1.625 -0.125 -4.1875q0 -2.578125 0.125 -4.203125q0.5 -8.90625 4.125 -15.609375q3.640625 -6.703125 9.96875 -10.328125q6.328125 -3.640625 14.859375 -3.640625q9.515625 0 15.96875 4.015625q6.46875 4.0 9.84375 11.40625q3.390625 7.390625 3.390625 17.28125l0 2.140625q0 1.375 -0.8125 2.125q-0.8125 0.75 -2.078125 0.75l-43.359375 0q0 0.125 0 0.5q0 0.375 0 0.625q0.25 5.140625 2.25 9.59375q2.015625 4.453125 5.828125 7.21875q3.828125 2.75 8.96875 2.75q4.515625 0 7.515625 -1.375q3.015625 -1.390625 4.890625 -3.078125q1.875 -1.6875 2.5 -2.703125q1.140625 -1.5 1.765625 -1.8125q0.625 -0.3125 2.0 -0.3125l6.140625 0q1.125 0 1.9375 0.6875q0.828125 0.6875 0.6875 1.953125q-0.125 1.875 -2.0 4.578125q-1.875 2.6875 -5.328125 5.328125q-3.4375 2.625 -8.515625 4.3125q-5.078125 1.6875 -11.46875 1.6875zm-17.171875 -38.59375l34.34375 0l0 -0.375q0 -5.640625 -2.078125 -10.03125q-2.0625 -4.390625 -5.953125 -6.953125q-3.875 -2.578125 -9.265625 -2.578125q-5.390625 0 -9.21875 2.578125q-3.8125 2.5625 -5.828125 6.953125q-2.0 4.390625 -2.0 10.03125l0 0.375zm87.60559 38.59375q-8.90625 0 -15.359375 -3.4375q-6.453125 -3.453125 -9.96875 -9.90625q-3.5 -6.453125 -3.75 -15.484375q-0.125 -1.875 -0.125 -5.0q0 -3.140625 0.125 -5.015625q0.25 -9.03125 3.75 -15.484375q3.515625 -6.453125 9.96875 -9.890625q6.453125 -3.453125 15.359375 -3.453125q7.265625 0 12.46875 2.015625q5.203125 2.0 8.578125 5.140625q3.390625 3.125 5.078125 6.765625q1.703125 3.625 1.828125 6.875q0.125 1.265625 -0.765625 2.015625q-0.875 0.75 -2.125 0.75l-6.015625 0q-1.25 0 -1.875 -0.5625q-0.625 -0.5625 -1.25 -1.953125q-2.265625 -6.140625 -6.15625 -8.640625q-3.875 -2.5 -9.640625 -2.5q-7.515625 0 -12.21875 4.640625q-4.703125 4.625 -5.078125 14.90625q-0.125 4.515625 0 8.765625q0.375 10.40625 5.078125 14.984375q4.703125 4.578125 12.21875 4.578125q5.765625 0 9.640625 -2.5q3.890625 -2.515625 6.15625 -8.65625q0.625 -1.390625 1.25 -2.015625q0.625 -0.625 1.875 -0.625l6.015625 0q1.25 0 2.125 0.828125q0.890625 0.8125 0.765625 2.0625q-0.125 2.625 -1.140625 5.390625q-1.0 2.75 -3.1875 5.578125q-2.1875 2.8125 -5.453125 5.015625q-3.265625 2.1875 -7.78125 3.5q-4.5 1.3125 -10.390625 1.3125zm45.86862 -1.25q-1.25 0 -2.0625 -0.8125q-0.8125 -0.8125 -0.8125 -2.0625l0 -83.21875q0 -1.265625 0.8125 -2.078125q0.8125 -0.8125 2.0625 -0.8125l6.265625 0q1.375 0 2.125 0.8125q0.765625 0.8125 0.765625 2.078125l0 29.1875q3.375 -4.25 8.265625 -6.875q4.890564 -2.640625 12.406189 -2.640625q8.140625 0 13.84375 3.578125q5.703125 3.5625 8.640625 9.890625q2.953125 6.328125 2.953125 14.734375l0 35.34375q0 1.25 -0.75 2.0625q-0.75 0.8125 -2.125 0.8125l-6.265625 0q-1.25 0 -2.078125 -0.8125q-0.8125 -0.8125 -0.8125 -2.0625l0 -34.71875q0 -8.78125 -4.265625 -13.71875q-4.25 -4.953125 -12.53125 -4.953125q-7.765564 0 -12.531189 4.953125q-4.75 4.9375 -4.75 13.71875l0 34.71875q0 1.25 -0.765625 2.0625q-0.75 0.8125 -2.125 0.8125l-6.265625 0z" fill-rule="nonzero"/></g></svg>